<svg id="Layer_1" data-name="Layer 1" xmlns="http://www.w3.org/2000/svg" viewBox="0 0 365.12 114.79"><defs><style>.cls-1{fill:#fff;opacity:0.99;}</style></defs><title>storystation</title><path class="cls-1" d="M-76,203.84a27.84,27.84,0,0,0-4.85-14.76,28.77,28.77,0,0,0-7-6.84,65.68,65.68,0,0,0-9-4.86l-4.57-2.18a32.11,32.11,0,0,1-4.36-2.42,23.83,23.83,0,0,1-2.11-2.17,23.84,23.84,0,0,1-1.72-2.68c-.56-1-1.09-2.1-1.58-3.18a38,38,0,0,1-1.4-4.09c-.39-1.5-.72-3-1-4.51a26.86,26.86,0,0,1-.2-3.29c0-1.19.08-2.37.17-3.56.16-1,.34-1.93.54-2.91a23.59,23.59,0,0,1,1.17-3.71,24.31,24.31,0,0,1,2.29-4,23.62,23.62,0,0,1,2.82-2.83,19.39,19.39,0,0,1,3-1.81,15.54,15.54,0,0,1,2.41-.66,17.19,17.19,0,0,1,2.72,0,16.51,16.51,0,0,1,2.95.81,25.56,25.56,0,0,1,4.19,2.61c.93.79,1.81,1.59,2.69,2.44A26.17,26.17,0,0,1-86.49,142a42.21,42.21,0,0,1,4.24,7.27,31.81,31.81,0,0,1,1.84,7h0c.14,1.25.23,2.49.33,3.74a0,0,0,1,0,0,0c-.19-3.08-.32-6.16-.73-9.22v0a33.74,33.74,0,0,0-3.34-10.7,46.41,46.41,0,0,0-3.05-5.26c-.56-.81-1.13-1.59-1.72-2.38A19.74,19.74,0,0,0-94,127.59a17.83,17.83,0,0,0-3.2-1.48,15.36,15.36,0,0,0-3.93-.87,16.17,16.17,0,0,0-4.51.22,16,16,0,0,0-4,1.47,24.12,24.12,0,0,0-6.18,4.47,25.51,25.51,0,0,0-2.84,3.38,30.73,30.73,0,0,0-2.43,3.88,38.37,38.37,0,0,0-2.57,6.36,32.53,32.53,0,0,0-1.26,6.41,46.79,46.79,0,0,0,.57,13.25A33.28,33.28,0,0,0-119.53,177a29.43,29.43,0,0,0,2.63,3.32,24.19,24.19,0,0,0,5.53,4.42,50.9,50.9,0,0,0,5.14,2.57c1.79.84,3.56,1.7,5.36,2.52s3.34,1.55,5,2.45a34,34,0,0,1,3.64,2.34A23,23,0,0,1-90,196.94a23.33,23.33,0,0,1,1.91,3.28,29.65,29.65,0,0,1,1.42,5.16l.18,1.51c.1.84.08,1.71.12,2.56a35.1,35.1,0,0,1-.23,4.78c-.12.78-.24,1.55-.41,2.32a42.55,42.55,0,0,1-1.91,6.34,31.48,31.48,0,0,1-3.17,5.47,24.45,24.45,0,0,1-3.28,3.31,19.57,19.57,0,0,1-3.08,1.86,16.19,16.19,0,0,1-2.9.8,22.17,22.17,0,0,1-4.54-.07,25.12,25.12,0,0,1-5.2-1.4,17,17,0,0,1-3.31-1.93,22.56,22.56,0,0,1-3.11-3.4,47.25,47.25,0,0,1-3.31-5.43s0,0,0,0a67.32,67.32,0,0,0,3.51,8.19,16.62,16.62,0,0,0,6.13,5.92,25.22,25.22,0,0,0,3.93,1.95,25.65,25.65,0,0,0,4.79,1.47,17.25,17.25,0,0,0,10-1.07,20.93,20.93,0,0,0,3.79-2,25.18,25.18,0,0,0,3.79-3.24A32.61,32.61,0,0,0-82,229.68a24.54,24.54,0,0,0,2.36-4.18,36.14,36.14,0,0,0,1.73-4.62c.2-.65.33-1.33.49-2a41.64,41.64,0,0,0,.75-4.34c-.06.45-.12.89-.18,1.33A72.47,72.47,0,0,0-76,206q0-1.05-.06-2.11Zm-4.76-53v0Zm.37,5.44h0Z" transform="translate(125.16 -125.16)"/><path class="cls-1" d="M-59.16,234.87l-.45.07h0a2.86,2.86,0,0,1-.89,0h.06a3.6,3.6,0,0,1-.72-.21,3.73,3.73,0,0,1-.66-.39,3.58,3.58,0,0,1-.46-.46,7.56,7.56,0,0,1-.57-1,14,14,0,0,1-.7-2.74,41.54,41.54,0,0,1,.08-7.12c.16-2.35.37-4.7.57-7,.38-4.44.73-8.89.81-13.35v0a6,6,0,0,0,.17-1.6c0-.33,0-.66,0-1,0-.71,0-1.43-.07-2.14-.07-1.43-.21-2.86-.35-4.28-.31-3.12-.72-6.24-1.32-9.32a41.18,41.18,0,0,0-2.62-8.53,10.49,10.49,0,0,0-4.27-5.05,8.47,8.47,0,0,0-3.4-.92c-1.05-.11-2.13-.16-3.19-.18,0,0,0,0,0,0h0c.43,0,.85.05,1.27.09h0a8.62,8.62,0,0,1,1.83.5,7.74,7.74,0,0,1,1.08.68h0a6.27,6.27,0,0,1,.61.61,9.87,9.87,0,0,1,.83,1.36,14.22,14.22,0,0,1,.78,2.86c.45,4.37,0,8.75-.34,13.12-.14,2.11-.35,4.22-.41,6.34,0,1.09,0,2.18,0,3.26,0,.66,0,1.31.07,2,0,.2,0,.4,0,.6a9.19,9.19,0,0,0,.18,1.6l.07.2c.15,2.52.3,5,.54,7.56.31,3.22.72,6.42,1.17,9.62l-.07-.55.1.76v0a48.4,48.4,0,0,0,1.63,8.3A14.24,14.24,0,0,0-64.62,234a4.91,4.91,0,0,0,2.68,1.45,4.7,4.7,0,0,0,2.79-.59h0l0,0Zm-2-.15-.1,0,.1,0Zm-8.29-14.53,0-.21,0,.22Z" transform="translate(125.16 -125.16)"/><path class="cls-1" d="M-53.23,188.9A14.54,14.54,0,0,0-56,187.56a24.94,24.94,0,0,0-3.44-1.16,43.77,43.77,0,0,0-6.44-1.05,8.59,8.59,0,0,0-3.44-.22,24.17,24.17,0,0,0-3.51.44c-2.07.39-4,1.32-6.07,1.66h0l-1.4.16a0,0,0,0,0,0,0h0a13.84,13.84,0,0,1,3,0h-.07a37.51,37.51,0,0,1,5.21,1.54c.89.28,1.79.52,2.69.73a7.62,7.62,0,0,0,3.29.36,35.52,35.52,0,0,0,7.24-.34H-59l.15,0,.26,0-.15,0c1.68-.22,3.35-.47,5-.73h0a1.54,1.54,0,0,1,.54,0h0Zm-5.63.77H-59l.2,0Z" transform="translate(125.16 -125.16)"/><path class="cls-1" d="M-36.17,202.35A21.81,21.81,0,0,0-39,199.91a11.68,11.68,0,0,0-2.44-1.34,7.42,7.42,0,0,0-2.66-.56,5.56,5.56,0,0,0-3,1.33s0,0,0,0a5.54,5.54,0,0,1,1.59-.05h-.08a3.69,3.69,0,0,1,1.28.4l-.21-.09.46.29a12.33,12.33,0,0,1,1.53,1.61,21.23,21.23,0,0,1,1.71,3,10.63,10.63,0,0,1,.41,1.48,7.69,7.69,0,0,1,0,.88,16.18,16.18,0,0,1-.66,2.48,15.61,15.61,0,0,1-1.06,1.89c-.23.25-.46.48-.71.7l-.36.2a14.85,14.85,0,0,1-1.62.44,16,16,0,0,1-1.6,0,17.79,17.79,0,0,0-1.72-.7c-.4-.22-.78-.45-1.15-.69a13.15,13.15,0,0,1-.92-.94c-.24-.38-.46-.77-.67-1.17a13.77,13.77,0,0,1-.49-1.95,19.92,19.92,0,0,1,.05-3.72,23.06,23.06,0,0,1,.94-3.46,14.6,14.6,0,0,1,1.31-2.31,11.82,11.82,0,0,1,1.3-1.34,9.32,9.32,0,0,1,1.59-.93,10.64,10.64,0,0,1,2.33-.53h0a1.49,1.49,0,0,1,.35,0,0,0,0,1,0,0,0,24.52,24.52,0,0,0-2.72.27,13.92,13.92,0,0,0-4.27,1,14.41,14.41,0,0,0-6.45,6.18,15.45,15.45,0,0,0-2.21,8,12.47,12.47,0,0,0,.75,3.91c.26.65.54,1.29.85,1.92a13.47,13.47,0,0,0,1.73,2.39,7,7,0,0,0,1.24,1.12,12,12,0,0,0,2.47,1.58,15.71,15.71,0,0,0,2,.78,4.73,4.73,0,0,0,2.31.08,13.41,13.41,0,0,0,3,0,15,15,0,0,0,4.49-1.2c4.45-1.91,6.18-6.79,6.38-11.32,0-.21,0-.43,0-.64a9.18,9.18,0,0,0-2.22-6.49Zm-10-7h0Zm-1.67,1,0,0,0,0Z" transform="translate(125.16 -125.16)"/><path class="cls-1" d="M-18.42,184.7c0-.69-.09-1.39-.14-2.08q-.19-2.36-.47-4.72-.6-5.13-1.6-10.19c-1.13-5.79-2.27-11.64-4.58-17.1l0,.08c-.31-.74-.63-1.47-.95-2.21l.08.2c-.21-.49-.44-1-.64-1.46v0l-.21-.48h0a32.49,32.49,0,0,1-1.4-4.39s0,0,0,0c.19.81.37,1.63.52,2.45h0A52.54,52.54,0,0,1-28,155c-.25,3.59-.53,7.17-.81,10.75s-.68,7-1,10.51q-.22,2.36-.42,4.71c-.09,1.09-.17,2.18-.25,3.28l-.06,1a6,6,0,0,0,.24,2.12A143.24,143.24,0,0,0-29,210l0-.22q.11.86.23,1.72l-.06-.43.08.61.06.42,0-.33q.1.77.21,1.53l-.13-1c.37,2.75.77,5.48,1.23,8.21s1.11,5.52,1.71,8.28c0,.22,0,.44,0,.66,0,0,0,0,0,0A43.8,43.8,0,0,0-24,224c.46-1.7.91-3.41,1.32-5.12.84-3.44,1.44-7,2-10.46.61-3.76,1-7.56,1.4-11.36.31-3.17.58-6.36.57-9.55l.07-.24a5.79,5.79,0,0,0,.21-1.6c0-.31,0-.62,0-.95Zm-8.21-37.36,0,0,0,0Zm-2.11,64.3,0-.18,0,.26v-.09Zm1-66.81h0Zm2.61,5.86.1.24-.1-.24Z" transform="translate(125.16 -125.16)"/><path class="cls-1" d="M4.29,157.65a17.85,17.85,0,0,0-.8-2.65,25.62,25.62,0,0,0-2-4.25,21.77,21.77,0,0,0-6-6.32,18,18,0,0,0-12-3.75,19.77,19.77,0,0,0-8.8,3.34,32.83,32.83,0,0,0-4.62,3.8,33.88,33.88,0,0,0-3.68,4l.27-.35c-.87,1.12-1.69,2.25-2.5,3.41s-1.56,2.36-2.43,3.48h0c-.48.61-1,1.21-1.45,1.81a0,0,0,0,0,0,0h0a19.61,19.61,0,0,1,2.86-3,26.13,26.13,0,0,1,5.6-3l-.41.17.77-.33-.2.08a52.4,52.4,0,0,1,10.81-3.48,16.72,16.72,0,0,1,2.49,0,13.36,13.36,0,0,1,1.53.42,15.77,15.77,0,0,1,1.7,1,16.87,16.87,0,0,1,1.38,1.38A17.08,17.08,0,0,1-12,155.32a19.22,19.22,0,0,1,.62,2.24,19.44,19.44,0,0,1,0,2.23,26.94,26.94,0,0,1-1,3.83c-.43.88-.89,1.75-1.4,2.6-.31.51-.62,1-1,1.51l-.5.74a7.74,7.74,0,0,0-.87,1.76c-.52.55-1.07,1.07-1.65,1.58A28.4,28.4,0,0,1-21.48,174l-1,.5a10.25,10.25,0,0,0-4.27,3.91,18.72,18.72,0,0,0-1.06,2.43,9.92,9.92,0,0,0,0,4.88,11.56,11.56,0,0,0,2.45,4.18,49.43,49.43,0,0,1,3.87,6.77c1.28,2.62,2.5,5.25,3.64,7.92.76,1.83,1.54,3.65,2.39,5.44a34.45,34.45,0,0,0,3.13,5.16A25.09,25.09,0,0,0-6.7,221.1a19.79,19.79,0,0,0,7.23,3.21s0,0,0,0L.1,224h0a21.79,21.79,0,0,1-3.37-3.43,24,24,0,0,1-2.51-4.36A69.2,69.2,0,0,1-9.2,202.14c-.34-3-.58-6-1.11-8.91-.26-1.45-.6-2.88-.93-4.31a25,25,0,0,0,3.68-2,33.19,33.19,0,0,0,6.06-5.32,9.82,9.82,0,0,0,2.92-3.13c.22-.34.39-.71.58-1.07A28.05,28.05,0,0,0,3.72,173a16.1,16.1,0,0,0,.57-2.46,53.06,53.06,0,0,0,.66-5.33q0-.66,0-1.32a32.22,32.22,0,0,0-.7-6.27Zm-42.51.75h0Z" transform="translate(125.16 -125.16)"/><path class="cls-1" d="M23.3,182.12a4.19,4.19,0,0,0-.37-1.07,13.9,13.9,0,0,0-.47-1.85c-.43-1.3-.88-2.59-1.33-3.88a71.62,71.62,0,0,0-3.32-8.13,60.79,60.79,0,0,0-4.07-7.08c-1.74-2.58-4-4.75-5.86-7.2h0c-.59-.79-1.11-1.61-1.64-2.43,0,0,0,0,0,0a23.37,23.37,0,0,1,1.6,2.95l0,0a31.56,31.56,0,0,1,1.36,4.89c.4,1.77.87,3.54,1.28,5.31q1.09,4.7,1.8,9.47l0,.3c.23,1.83.46,3.66.57,5.49.05.84.09,1.68.12,2.52a12.42,12.42,0,0,0,.16,1.47,5.06,5.06,0,0,0,0,.65,18.06,18.06,0,0,0,.29,2.39c.07.5.16,1,.23,1.49s.11.7.17,1.05a3.31,3.31,0,0,0,.36,1l0,.21.12.91c.62,5,1.16,10.1,1.85,15.14l-.11-.79c.52,3.88,1.11,7.74,1.89,11.58a87.28,87.28,0,0,0,2.51,10.13,0,0,0,0,0,0,0c0-.3.05-.57.09-.86,0,0,0,0,0,.05a165.88,165.88,0,0,0,1.39-18.73c.1-3.16.27-6.31.33-9.46.05-2.82,0-5.64.24-8.46a4.64,4.64,0,0,0,.31-1.26c.14-.8.29-1.6.42-2.4a12,12,0,0,0,.22-1.93,7.61,7.61,0,0,0-.16-1.47Zm-11.13-9.54,0-.28,0,.28ZM7.89,152.94h0Z" transform="translate(125.16 -125.16)"/><path class="cls-1" d="M51.24,146.69c-1.77.68-3.67.9-5.47,1.48a22.06,22.06,0,0,0-6.46,3.52,42.79,42.79,0,0,0-5.58,4.85,37.36,37.36,0,0,0-4.7,6.33,12,12,0,0,0-2.1,3.45c-.48,1-.95,2-1.39,3a48.77,48.77,0,0,0-2.43,7.13c-.59,2.23-1,4.52-1.5,6.78-.25,1.25-.5,2.51-.81,3.75a27.71,27.71,0,0,1-1.36,3.82s0,0,0,0c.37-.83.74-1.66,1.18-2.46A19.71,19.71,0,0,1,22.26,186l.49-.64-.12.16,1-1.33-.08.1c2.16-2.79,4.1-5.72,6-8.69q1.32-2.07,2.6-4.16c.43-.71.87-1.43,1.29-2.16a11.07,11.07,0,0,0,1.46-3,66.83,66.83,0,0,1,4.75-7.65l.22-.28-.18.23,1.71-2.2-.41.53.43-.56h0l0,0,.38-.49-.14.18.26-.34a33.62,33.62,0,0,1,5-5.43l0,0,.16-.13,0,0a29.88,29.88,0,0,0,4.18-3.48h0ZM23.67,184.16l.05-.07-.05.07Z" transform="translate(125.16 -125.16)"/><path class="cls-1" d="M83,200.73a45.28,45.28,0,0,0-1.59-8.82,97.34,97.34,0,0,0-3.54-9.16,31.67,31.67,0,0,0-5.21-7.69c-.18-.21-.38-.42-.58-.63A6.78,6.78,0,0,0,70.75,173l-1.08-.88c-.79-.64-1.54-1.32-2.29-2a36.51,36.51,0,0,1-3.48-3.65,21.28,21.28,0,0,1-1.32-2.28,25.42,25.42,0,0,1-.92-3.39,40.91,40.91,0,0,1,.08-7,53.18,53.18,0,0,1,2.5-9.21,21.31,21.31,0,0,1,1.71-3.09c.27-.3.54-.59.84-.86l.51-.31.27-.07h.3c.26.06.51.14.76.22a13,13,0,0,1,1.63,1A19.76,19.76,0,0,1,73,144.31a27.36,27.36,0,0,1,3.34,5.57l0-.08,0,.08v0a29.52,29.52,0,0,1,1.5,5.5h0s0,0,0,0-.08-.5-.11-.66c-.09-.56-.19-1.12-.27-1.7h0c-.3-2.3-.32-4.63-.69-6.93a32.69,32.69,0,0,0-2.1-7.7,15.48,15.48,0,0,0-1.65-3,11.67,11.67,0,0,0-3.15-2.95l-1-.42a4.07,4.07,0,0,0-1.76-.47,9.9,9.9,0,0,0-3.43.05,13.49,13.49,0,0,0-4.14,1.61,17.91,17.91,0,0,0-3.13,2.36c-.51.47-1,.94-1.49,1.44a35.24,35.24,0,0,0-2.49,2.91,37.25,37.25,0,0,0-3,4.3,38.21,38.21,0,0,0-1.71,3.42,47.32,47.32,0,0,0-3,8.11,30.11,30.11,0,0,0-.52,3.53,16.71,16.71,0,0,0-.16,2,32.09,32.09,0,0,0,.7,6.25,20.73,20.73,0,0,0,1.07,3.81,31.67,31.67,0,0,0,2.65,5.54,65.13,65.13,0,0,0,5.17,6.67,22.8,22.8,0,0,0,2.14,2.16c.3.27.61.52.93.78A20.59,20.59,0,0,0,60,188.77q.54.45,1.06.93a28.24,28.24,0,0,1,2.23,2.3,41.09,41.09,0,0,1,2.9,5.33c.49,1.28,1,2.56,1.37,3.87a23.68,23.68,0,0,1,.79,3.59,65,65,0,0,1,.17,11.5,28.79,28.79,0,0,1-1.28,4.78,19.29,19.29,0,0,1-1.38,2.44,14.81,14.81,0,0,1-1.13,1.15A17.1,17.1,0,0,1,62.42,226a14.81,14.81,0,0,1-2.38.68,14.24,14.24,0,0,1-1.69,0,15.29,15.29,0,0,1-2.92-.82,15.1,15.1,0,0,1-1.84-1.07,14.64,14.64,0,0,1-1.5-1.5,23.46,23.46,0,0,1-2.67-4.53s0,0,0,0c.3,1.57.54,3.14.87,4.7a11.3,11.3,0,0,0,1.68,3.91,12.28,12.28,0,0,0,2.93,2.91,16.48,16.48,0,0,0,4.66,2.46,13.55,13.55,0,0,0,4.39.5,19.14,19.14,0,0,0,4.39-.62,13.48,13.48,0,0,0,4-1.85,17.41,17.41,0,0,0,4-3.59,23.11,23.11,0,0,0,3.12-5c.73-1.59,1.37-3.22,1.95-4.87a41.18,41.18,0,0,0,1.77-9.54,29,29,0,0,0,.14-2.92,36.31,36.31,0,0,0-.24-4.09ZM68.69,140.34l-.47-.06h0l.48.07Zm-.48-.06h0Zm-1.06.09-.14.06,0,0,.12,0Zm-.12-.08-.15,0,.15,0Zm0,.13,0,0-.71.3a5.91,5.91,0,0,1,.75-.32Zm9.36,9.47h0ZM77.51,153h0Z" transform="translate(125.16 -125.16)"/><path class="cls-1" d="M104.86,220.25A16.39,16.39,0,0,1,102,222a14.18,14.18,0,0,1-1.67.53l.27,0a3.87,3.87,0,0,1-1.47,0l.36,0-.39-.13-.35-.2a4.15,4.15,0,0,1-.34-.34,12.26,12.26,0,0,1-.82-1.43,18,18,0,0,1-.79-3.23,56.7,56.7,0,0,1,.14-10c.27-3.44.47-6.91.46-10.37a10.32,10.32,0,0,0,.1-2.6c0-.85-.09-1.69-.15-2.54-.12-1.61-.31-3.21-.51-4.8q-.64-5.06-1.46-10.11c-.49-3.07-1.06-6.11-1.72-9.14s-1.64-6.18-2.07-9.36a0,0,0,1,0,0,0,10.1,10.1,0,0,0,.13,1.23,11.74,11.74,0,0,1,0,1.23,24.48,24.48,0,0,1-.24,2.93l0-.15c-.36,2.57-.87,5.12-1.32,7.68s-.84,5.12-1.22,7.68c-.46,3.06-.89,6.13-1.2,9.21-.13,1.32-.22,2.65-.29,4,0,.73-.07,1.45-.11,2.18a10.79,10.79,0,0,0,.08,2.52q-.06,3.86.19,7.71a53.5,53.5,0,0,0,1.57,9.36,28.18,28.18,0,0,0,1.22,3.71A20.28,20.28,0,0,0,91.57,220a19.71,19.71,0,0,0,1.56,2.25,10.31,10.31,0,0,0,2.66,2.31,4.72,4.72,0,0,0,4.32.25c2-.8,3.45-2.94,4.77-4.57h0s0,0,0,0ZM99,222.42l-.1-.08h0l.09.07Zm-.11-.08h0l0,0,0,0Zm-.63-.62-.12-.16.12.16Z" transform="translate(125.16 -125.16)"/><path class="cls-1" d="M105.81,181.8a16,16,0,0,0-5.33-3,24.2,24.2,0,0,0-7.83-1.45,7,7,0,0,0-2.75-.16c-.93,0-1.84.14-2.77.25-1.83.22-3.61.68-5.42.95a20.59,20.59,0,0,1-4.05,0h0s0,0,0,0h0l1.56.18h0a40.39,40.39,0,0,1,6.45,2.09,22.34,22.34,0,0,0,2.94.78c.75.16,1.51.25,2.27.35l.93.09a1.72,1.72,0,0,0,.81-.14c2.33.07,4.66-.09,7-.08,2,0,4,0,6,.08l.2,0h0ZM79.2,178.6h0Z" transform="translate(125.16 -125.16)"/><path class="cls-1" d="M132.58,223.37l-.6.13h-.59a4.73,4.73,0,0,1-1.19-.38l.16.07a6.65,6.65,0,0,1-1.05-.6,13.17,13.17,0,0,1-1.87-1.87,11.12,11.12,0,0,1-.95-1.61,19.6,19.6,0,0,1-.74-3.18,36.09,36.09,0,0,1-.32-4.32c0-2,.11-4,.25-6s.37-4.09.5-6.13c.09-1.39.16-2.78.22-4.17a19.5,19.5,0,0,0,.42-4.85c.05-1.45.08-2.9.07-4.35a46.27,46.27,0,0,0-1-9.36,20.73,20.73,0,0,0-3.32-7.94,16,16,0,0,0-7.42-5.79l.07,0a29.94,29.94,0,0,1-3.31-1.69h0s0,0,0,0c.79.49,1.57.95,2.32,1.51a12.33,12.33,0,0,1,1.11,1.11,10.86,10.86,0,0,1,1.28,2.18,21.55,21.55,0,0,1,1.28,4.79,41.25,41.25,0,0,1-.35,8.6c-.32,2.18-.72,4.34-1.12,6.51-.29,1.59-.51,3.19-.72,4.79-.07.52-.12,1-.17,1.56,0,.33-.05.67-.08,1a4.61,4.61,0,0,0,.16,1.55,54.53,54.53,0,0,0,.54,7.83,79.3,79.3,0,0,0,1.71,9.8,23.78,23.78,0,0,0,1.51,4.06,17.62,17.62,0,0,0,2.34,3.89,10.92,10.92,0,0,0,4.64,3.27,8,8,0,0,0,2.37.57,8.46,8.46,0,0,0,2.06-.14,5.06,5.06,0,0,0,1.77-.87h0Zm-3.12-.67-.11-.09.11.09ZM114.22,162.9h0Z" transform="translate(125.16 -125.16)"/><path class="cls-1" d="M123.72,205.42a9.18,9.18,0,0,0-2.17-3,11.26,11.26,0,0,0-4.83-2.53,9.62,9.62,0,0,0-4.75,0l-1-.08a9.91,9.91,0,0,0-4.81,1c-3.08,1.55-5.84,4.37-6.35,7.89a8.44,8.44,0,0,0,0,3.24,15.8,15.8,0,0,0,1,2.72A13,13,0,0,0,105,219a13.52,13.52,0,0,0,8,2.08l1.47-.2a6,6,0,0,0,1.62-.74,21.56,21.56,0,0,0,2.36-1,11.9,11.9,0,0,0,2.74-2.16,12.05,12.05,0,0,0,2-2.9c.27-.63.54-1.26.79-1.9l.22-.8c.1-.68.2-1.37.29-2.05a9.67,9.67,0,0,0-.8-3.87Zm-8.05,2.24,0,.15c-.14.26-.28.51-.44.76s-.53.55-.81.81a13,13,0,0,1-1.15.68l-.22,0-.91.12a15.06,15.06,0,0,1-1.59,0c-.36-.08-.71-.18-1.06-.29l-.53-.31-.2-.19,0,0-.1-.37q0-.15,0-.29a13.2,13.2,0,0,1,.38-1.42,14.4,14.4,0,0,1,.72-1.31c.22-.13.45-.26.69-.37a9.38,9.38,0,0,1,1-.24,9.93,9.93,0,0,1,1,0,10.47,10.47,0,0,1,1.25.34,10.61,10.61,0,0,1,1.07.62,9.12,9.12,0,0,1,.66.66l.23.4.08.28Zm0-.28v0h0v0Zm0,0h0l-.08-.57a4.69,4.69,0,0,1,.08.58Zm0,.86q0,.13,0,.26l0-.26Zm-6,1.94-.42-.32h0l.42.32Zm-.92-.22q0-.27-.07-.54h0l.07.54Zm-.07-.54h0v0Zm-.06-.29,0-.06h0l0,.07Zm0-.09h0a5,5,0,0,1-.24-.58l.24.57Z" transform="translate(125.16 -125.16)"/><path class="cls-1" d="M119.86,168.89a6.79,6.79,0,0,0-2.61-3.2,6.21,6.21,0,0,0-4.59-.56s0,0,0,0c.5.13,1,.28,1.46.46l-.08,0a10.58,10.58,0,0,1,2,1.12,10.69,10.69,0,0,1,1.43,1.47,14.42,14.42,0,0,1,.88,1.45c.16.42.35.82.52,1.23a15.37,15.37,0,0,1,1,3.56h0a29.07,29.07,0,0,1,.05,3.3h0s0,0,0,0h0c.05-1.05.13-2.1.27-3.14,0,0,0,0,0,0,0-.34.08-.69.13-1v.08a13,13,0,0,0,.13-1.73,7.53,7.53,0,0,0-.57-3Z" transform="translate(125.16 -125.16)"/><path class="cls-1" d="M119.05,171.47c-.43-.91-.86-1.82-1.25-2.74l0,0-.39-.92v0a21.47,21.47,0,0,0-1-2,6.12,6.12,0,0,0-.64-1,7.36,7.36,0,0,0-2.35-1.89,5,5,0,0,0-4.1-.21,4.47,4.47,0,0,0-2.4,2.91s0,0,0,0a7.8,7.8,0,0,1,.81-.73,4.6,4.6,0,0,1,.84-.53l-.12,0a3.32,3.32,0,0,1,.87-.29,6.9,6.9,0,0,1,1.26,0,9.54,9.54,0,0,1,1.38.37,14.71,14.71,0,0,1,1.55.84l-.2-.16c.63.49,1.27,1,1.9,1.43a13.43,13.43,0,0,1,2,2v0a18.43,18.43,0,0,1,1.7,2.85,0,0,0,0,0,0,0Zm-1.64-3.68,0,.06,0-.06Z" transform="translate(125.16 -125.16)"/><path class="cls-1" d="M151.13,222.28a7.71,7.71,0,0,1-1.5.05h.07a6.18,6.18,0,0,1-1.26-.29,8.2,8.2,0,0,1-1.62-.92l-.44-.46A4.93,4.93,0,0,1,146,220a11.9,11.9,0,0,1-.49-1.73l0-.26,0,.13c-.25-3.57.51-7.12.86-10.66a102,102,0,0,0,.67-10.39,3.48,3.48,0,0,0,.18-1.22c0-.25,0-.51,0-.76,0-.75-.08-1.49-.13-2.23q-.13-1.89-.34-3.78a64.76,64.76,0,0,0-1.32-8,35.15,35.15,0,0,0-1.08-3.55,23.15,23.15,0,0,0-1.49-3.53,15.45,15.45,0,0,0-1.43-2.27,12.43,12.43,0,0,0-2.51-2.35,17.64,17.64,0,0,0-5.05-2.18s0,0,0,0l1.27.46h0a9.2,9.2,0,0,1,1.31.75,8.43,8.43,0,0,1,1,1,9.72,9.72,0,0,1,1,1.69,15.32,15.32,0,0,1,.78,3,58.94,58.94,0,0,1,.18,10.7c-.13,2-.28,3.92-.44,5.88q-.11,1.37-.2,2.73c0,.54-.07,1.08-.1,1.62,0,.25,0,.51,0,.76a3.35,3.35,0,0,0,.17,1.18c0,2.21,0,4.42.09,6.63.1,2.44.23,4.89.53,7.31a28.27,28.27,0,0,0,1.54,7.1,12.45,12.45,0,0,0,.77,1.57,7.67,7.67,0,0,0,2.5,2.75,9.74,9.74,0,0,0,1.52.71,6.67,6.67,0,0,0,2.55.23,7,7,0,0,0,2.91-1h0Zm-4.57-1.37-.12-.16.12.16Zm-1-2.15,0-.35,0,.35Zm-10.48-51.13h0Z" transform="translate(125.16 -125.16)"/><path class="cls-1" d="M158,184.44a7.31,7.31,0,0,0-2.14,0c-.6,0-1.21,0-1.81,0a2.51,2.51,0,0,0-1-.17l-1.1.07c-.66.05-1.32.13-2,.21-1.47.19-2.93.43-4.4.65-3,.43-5.93,1.1-8.91,1.56h.1a14.93,14.93,0,0,1-4,0h0l-.34,0a0,0,0,1,0,0,0,18.32,18.32,0,0,1,3.79,1l.38.16.79.34-.06,0,.17.07h0a26.48,26.48,0,0,0,3.54,1.3l-.67.18s0,0,0,0a39.24,39.24,0,0,0,8.91,1.2c1.52,0,3-.08,4.55-.13.68,0,1.36-.06,2-.12a7.21,7.21,0,0,0,2.94-.64,2.92,2.92,0,0,0,1.49-2.63,3,3,0,0,0-2.23-3Zm-21.92,3.23h0Zm-3.38-.95h0Zm4.73,1.52-.11,0,.13.05Z" transform="translate(125.16 -125.16)"/><path class="cls-1" d="M167.78,195.13a40.69,40.69,0,0,0-1.05-5.43,22.75,22.75,0,0,0-4.1-8.3l.18.24c-.75-1-1.57-1.9-2.32-2.87s-1.36-2.05-2-3.09c0,0,0,0,0,0,.53.89,1,1.78,1.47,2.72a13.31,13.31,0,0,1,.59,2.27,58.63,58.63,0,0,1,0,9.21c-.07,1.67-.15,3.35-.22,5,0,.73-.05,1.45-.08,2.18a8.84,8.84,0,0,0,.19,2.87c0,1.58.07,3.16,0,4.74,0,1.79-.14,3.59-.2,5.38a25.84,25.84,0,0,0,.41,6.16,5.72,5.72,0,0,0,2.8,3.8,5.89,5.89,0,0,0,3.88.4,0,0,0,0,0,0,0l-.37-.08a9.42,9.42,0,0,1-1.26-.78,8.32,8.32,0,0,1-1-1,3.19,3.19,0,0,1-.25-.44,4.18,4.18,0,0,1-.17-.61,7.81,7.81,0,0,1,0-1.44c.53-2.67,1.64-5.21,2.35-7.83a34.86,34.86,0,0,0,1.28-8.32,6.26,6.26,0,0,0,.23-1.78,24.88,24.88,0,0,0-.28-3Z" transform="translate(125.16 -125.16)"/><path class="cls-1" d="M165.51,159.3a6,6,0,1,0,6,6,6.06,6.06,0,0,0-6-6Z" transform="translate(125.16 -125.16)"/><path class="cls-1" d="M192.26,193.19a9.63,9.63,0,0,0-4.84-2,11.07,11.07,0,0,0-3,.13,11.59,11.59,0,0,0-2.9,1.12s0,0,0,0a12.93,12.93,0,0,1,2.24,0,13.23,13.23,0,0,1,2,.54,8,8,0,0,1,3.21,2.46,12.92,12.92,0,0,1,1.19,2,14,14,0,0,1,.55,2,15.81,15.81,0,0,1,0,2.67,19.43,19.43,0,0,1-1,3.61,17.85,17.85,0,0,1-1.52,2.62,14.16,14.16,0,0,1-1.21,1.23,10.1,10.1,0,0,1-1,.58l-.39.11h-.48l-.19,0a12.83,12.83,0,0,0-1.11-.81,13.7,13.7,0,0,1-1.27-1.28,23,23,0,0,1-1.72-3c-.3-.77-.59-1.53-.82-2.33-.3-1-.52-2.06-.72-3.12a21.25,21.25,0,0,1,0-4.13,22.41,22.41,0,0,1,1.21-4.23,23.71,23.71,0,0,1,2-3.62,14.85,14.85,0,0,1,2.33-2.38h0l0,0,0,0h0a12.25,12.25,0,0,1,2.44-1.39h0l1.45-.52a0,0,0,0,0,0,0,5.06,5.06,0,0,0-1.3.42l-1.8.58a19.51,19.51,0,0,0-5.51,2.58,17.33,17.33,0,0,0-6.62,9.79,19.83,19.83,0,0,0-.43,4.88,37.39,37.39,0,0,0,.3,3.91,20.65,20.65,0,0,0,.43,2.48,26.38,26.38,0,0,0,1.34,3.76,12.21,12.21,0,0,0,2.67,3.69,16.72,16.72,0,0,0,1.73,1.37,4.36,4.36,0,0,0,2,.79,9.29,9.29,0,0,0,1.52.49,9.9,9.9,0,0,0,3.7,0,9.51,9.51,0,0,0,2.48-.94,12,12,0,0,0,2.68-1.92,11.29,11.29,0,0,0,1.82-2.13,16.05,16.05,0,0,0,1.65-3.11,20.13,20.13,0,0,0,1.35-6.25q0-.47,0-.95a12.17,12.17,0,0,0-4.49-9.65Zm-1.51,8.42,0,.18,0-.18Zm-5.94-16.25,0,0,0,0Z" transform="translate(125.16 -125.16)"/><path class="cls-1" d="M239.5,218.39c-.09-.3-.2-.6-.29-.9-.25-.81-.5-1.62-.7-2.45-.42-1.75-.77-3.5-1.08-5.27-.61-3.44-1.12-6.89-1.6-10.35-.32-2.93-.56-5.86-.64-8.81-.1-3.16-.15-6.33-.16-9.5,0-2.85.09-5.7.18-8.55.11-3.32.05-6.66.23-10,0,0,0,0,0,0-.64,2.48-1.43,4.93-2.09,7.41-.54,2-1,4.07-1.48,6.11-1,4.41-1.73,8.86-2.27,13.35A122.63,122.63,0,0,0,228.48,203q0,.88,0,1.77c-1-1.78-2-3.59-2.9-5.41a14.15,14.15,0,0,0-1.19-2.51l-.54-1.06-1.49-2.95q-1.39-2.76-2.83-5.49c-1-1.81-2-3.61-2.87-5.44s-1.73-3.6-2.53-5.43c-.37-.93-.73-1.86-1.07-2.8-.49-1.36-.87-2.74-1.34-4.1a5.81,5.81,0,0,0-3.94-3.94,5.67,5.67,0,0,0-3,0,5.85,5.85,0,0,0-3.37,2.59,5.93,5.93,0,0,0-1,3.62,20.46,20.46,0,0,0,.42,2.79c.16.84.34,1.69.5,2.53.26,1.34.47,2.68.66,4a162.39,162.39,0,0,1,1,17c0,2.8,0,5.62-.12,8.43a84,84,0,0,1-.57,8.41v-.11c-.12.89-.27,1.76-.48,2.63s-.6,1.92-.86,2.89c0,0,0,0,0,0h0a28.23,28.23,0,0,1,1-2.82h0c.44-1.06.93-2.09,1.38-3.15h0A97.8,97.8,0,0,0,209,196.88a59.88,59.88,0,0,0,1.09-7.92q1,2.68,2,5.39c.49,1.37,1,2.74,1.45,4.11l.78,2.24a14.7,14.7,0,0,0,1.21,3.1c.78,2.05,1.66,4.07,2.54,6.08s1.78,4.13,2.8,6.13a36.72,36.72,0,0,0,4.32,6.29,17,17,0,0,0,2.07,2.13c.74.64,1.54,1.23,2.33,1.82a6.58,6.58,0,0,0,5.66,1,6.24,6.24,0,0,0,4.39-4.39A13.69,13.69,0,0,0,240,221a9.19,9.19,0,0,0-.46-2.57Z" transform="translate(125.16 -125.16)"/></svg>