<svg xmlns="http://www.w3.org/2000/svg" viewBox="0 0 466.99 128.3"><defs><style>.cls-1{fill:#fff;}</style></defs><title>Asset 1</title><g id="Layer_2" data-name="Layer 2"><g id="Layer_1-2" data-name="Layer 1"><path class="cls-1" d="M80.7,86.21a44.21,44.21,0,0,0-1.87-10,57,57,0,0,0-4.16-9.43c-.64-1.11-1.29-2.19-2-3.26-1-1.65-2.3-3.16-3.5-4.71A40,40,0,0,0,63.46,53a58.51,58.51,0,0,0-8.11-5.86,32.67,32.67,0,0,0-3.27-1.62,32.33,32.33,0,0,0-5.74-2.12,38.25,38.25,0,0,0-9.83-1.16c-2.66.09-5.34.2-8,.55a44.15,44.15,0,0,1-7.67.41L20,42.93l-.69-.42c-.5-.47-1-.95-1.42-1.45s-.72-1.18-1-1.79A22.1,22.1,0,0,1,16.29,37a25.54,25.54,0,0,1,0-3.57,33.06,33.06,0,0,1,1.47-5.22,38.31,38.31,0,0,1,3.14-5.35,51.57,51.57,0,0,1,6.17-6.25c.85-.63,1.72-1.23,2.62-1.78A35.75,35.75,0,0,1,33,13.15a37.85,37.85,0,0,1,5.92-1.69l.53-.07h-.05a36.23,36.23,0,0,1,3.91-.14c1.27,0,2.52.15,3.78.28a49.82,49.82,0,0,1,10.91,3h0a25,25,0,0,1,5.18,2.77,28.34,28.34,0,0,1,4.46,4.74s0,0,0,0l-2.16-2.77h0c-1.48-1.91-2.66-4.07-4.28-5.88a30.4,30.4,0,0,0-5.91-5.12,36.21,36.21,0,0,0-7.37-3.64,39.82,39.82,0,0,0-4-1.25,36.59,36.59,0,0,0-4.55-.72,29.48,29.48,0,0,0-8,.43,31.66,31.66,0,0,0-8,2.53,42.9,42.9,0,0,0-6.75,3.64,36.16,36.16,0,0,0-6.69,5.57c-1.14,1.26-2.18,2.61-3.21,4a25.67,25.67,0,0,0-1.91,2.8,42.16,42.16,0,0,0-3.75,8.5,30.74,30.74,0,0,0-.9,5.33A25.32,25.32,0,0,0,0,39a29.6,29.6,0,0,0,.73,5.32,18.12,18.12,0,0,0,1.07,3.23,29.16,29.16,0,0,0,2.38,4.78,28.66,28.66,0,0,0,3.47,4.33c.41.42.86.8,1.31,1.18A25.91,25.91,0,0,0,13.1,60.8a26.56,26.56,0,0,0,5.79,2.28A30,30,0,0,0,29,64c2.5-.21,5-.64,7.49-.78a29.77,29.77,0,0,1,4,.06A36.68,36.68,0,0,1,45,64.5c.72.34,1.43.7,2.13,1.1a29.91,29.91,0,0,1,2.55,1.64c1,.89,2,1.79,3,2.76s2,2.12,2.92,3.23c.74,1,1.46,2.05,2.14,3.12a46,46,0,0,1,2.68,5c.48,1.22.92,2.45,1.33,3.7a34.86,34.86,0,0,1,1.11,4.67C63,91,63,92.21,63,93.47s-.09,2.38-.21,3.56-.48,2.58-.83,3.85c-.4,1.47-.88,2.9-1.4,4.32a37.87,37.87,0,0,1-3.15,5.61A28.32,28.32,0,0,1,54.28,114l-.6.49a47.74,47.74,0,0,1-7.27,4.35,29.34,29.34,0,0,1-5.19,1.4,31,31,0,0,1-6.72-.05A61.48,61.48,0,0,1,21,116.1a75.67,75.67,0,0,1-10.46-5.46s0,0,0,0a87.48,87.48,0,0,0,13.1,10.55c1.64,1.05,3.27,2.08,5,3a34.22,34.22,0,0,0,10.63,3.69,37.44,37.44,0,0,0,15.43-1.07,45.94,45.94,0,0,0,9.58-3.57,28.57,28.57,0,0,0,4.28-3,18.2,18.2,0,0,0,2.77-2.77,28.44,28.44,0,0,0,3.84-5.79,67.29,67.29,0,0,0,3.51-8.77,48.4,48.4,0,0,0,1.82-8.79,42.68,42.68,0,0,0,.37-5.22,24.59,24.59,0,0,0-.14-2.71ZM57.82,14.51l-.23-.1.23.1ZM53.56,114.58l-.37.28.37-.28ZM22.68,43.48l-.75-.1.75.1Z"/><path class="cls-1" d="M109,117.34c-.71.18-1.41.34-2.14.47a19,19,0,0,1-3.73.07,12.2,12.2,0,0,1-2-.56,7.17,7.17,0,0,1-.87-.5,10.53,10.53,0,0,1-1.2-1.2A15.57,15.57,0,0,1,98,113.74a47.19,47.19,0,0,1-2.32-10.08l-.07-.51c-.28-2.31-.57-4.62-.88-6.93l.08.57q-.13-1-.25-1.93c-.47-3.79-.8-7.59-1.26-11.38a7.22,7.22,0,0,0-.13-3.21l-.16-1c-.13-.78-.28-1.55-.43-2.32-.28-1.44-.59-2.87-.84-4.31-.49-2.81-1-5.62-1.35-8.45s-.74-5.84-1.14-8.76l.09.66c-.45-3.4-.84-6.82-1.1-10.25a51.26,51.26,0,0,1,0-10.5v0c.19-1.05.38-2.11.6-3.16h0s0,0,0,0c-.47,1.94-.86,3.9-1.43,5.82-.64,2.13-1.36,4.23-2,6.35q-2,6.32-3.42,12.78c-1,4.49-1.67,9.08-2.27,13.64-.28,2.14-.45,4.28-.58,6.43-.06,1-.08,2-.09,3,0,.48,0,1,0,1.45a11,11,0,0,0,.28,2.42,6.86,6.86,0,0,0,.24.72,70.56,70.56,0,0,0,5.22,19.76,66.45,66.45,0,0,0,4.95,10.1c1.66,2.63,4,5.28,7.05,6.26a9.67,9.67,0,0,0,6.56-.2,31.64,31.64,0,0,0,5.67-3.35h0ZM95.49,102.21l-.06-.45.06.45Z"/><path class="cls-1" d="M95.59,58.22c-2.09-.54-4.07-1.42-6.19-1.9a34.77,34.77,0,0,0-5.92-.64,14,14,0,0,0-3.21-.23c-1.1,0-2.19-.14-3.28-.28a13.17,13.17,0,0,1-3.22-.86h0c-.78-.34-1.54-.73-2.3-1.12,0,0,0,0,0,0h0c1.91,1.06,3.73,2.21,5.53,3.43a13.94,13.94,0,0,0,2.89,1.48,7.64,7.64,0,0,0,3.38.77,32.87,32.87,0,0,0,5.76,0l2.76-.15a29.36,29.36,0,0,0,3.78-.53h0v0Z"/><path class="cls-1" d="M117.84,76.95A9.28,9.28,0,0,0,115,72.74a6.37,6.37,0,0,0-1.78-1,4.53,4.53,0,0,0-2.67.14s0,0,0,0l.86.13.67.32.52.47-.1-.13a5.53,5.53,0,0,1,.77,1.2,10.28,10.28,0,0,1,.53,1.88,20.08,20.08,0,0,1-.11,3.67,17.14,17.14,0,0,1-.59,2.25,6,6,0,0,1-.33.57l-.22.22-.3.17-.38.11c-.29,0-.57,0-.85,0a11.16,11.16,0,0,1-1.11-.34,18.09,18.09,0,0,1-1.74-1,3,3,0,0,0-.46-.54,18.13,18.13,0,0,1-1.28-1.32,12.71,12.71,0,0,1-.72-1.25,12.44,12.44,0,0,1-.35-1.38,13,13,0,0,1,0-1.52,13.16,13.16,0,0,1,.53-1.88,13.16,13.16,0,0,1,.82-1.36,14.23,14.23,0,0,1,1.2-1.27l-.38.29a6.36,6.36,0,0,1,1.19-.79l-.34.14a4.58,4.58,0,0,1,1.26-.43l.79,0a7,7,0,0,1,1.39.38,21.67,21.67,0,0,1,3.73,2.57s0,0,0,0c-1.45-1.2-2.92-2.36-4.31-3.62A5.9,5.9,0,0,0,108,67.74a7.46,7.46,0,0,0-4.93,1.35c-3.13,2-4.58,6.12-4.21,9.7a11.37,11.37,0,0,0,2.57,6.08,6.9,6.9,0,0,0,2.22,2q.67.53,1.39,1a15.66,15.66,0,0,0,3,1.44,9.3,9.3,0,0,0,5.76.05A6.86,6.86,0,0,0,118.38,85a10.66,10.66,0,0,0,.4-3,15.43,15.43,0,0,0-.95-5.11Zm-4.52,4.27-.09.21.09-.21Zm-.25.71-.1.13.1-.13Zm-.77.81-.06,0h0l.06,0Zm-.06.05-.07.06.07-.06Zm-.28.05-.18.08.18-.08Z"/><path class="cls-1" d="M131.19,63.36c0-.54,0-1.08,0-1.62q0-1.73-.1-3.47c-.08-2.41-.12-4.82-.19-7.23-.13-4.85-.35-9.69-.76-14.52-.37-4.39-.82-8.77-1.26-13.15-.24-2.39-.47-4.79-.64-7.2a37.68,37.68,0,0,1,.13-6.77h0c0-.14,0-.29.07-.44h0a0,0,0,0,0,0,0c-.19,1.05-.3,2.12-.49,3.17s-.44,2.06-.65,3.09c-.48,2.32-1,4.61-1.5,6.93-.87,4.34-1.67,8.72-2.29,13.11-.71,5-1.27,10.1-1.82,15.16q-.42,3.82-.81,7.64c-.1,1-.2,1.92-.29,2.88a16.66,16.66,0,0,0-.17,4.37c-.26,4.29-.31,8.59-.3,12.89,0,4.51.08,9,.33,13.51.26,4.66.73,9.28,1.37,13.9.61,4.41,1.52,8.77,2.14,13.17h0c0,.33.08.66.11,1,0,0,0,0,0,0,.45-2.28,1.19-4.51,1.74-6.77s1.06-4.66,1.51-7q1.34-7,2.2-14.15c.54-4.49,1-9,1.29-13.52.24-4.2.28-8.42.26-12.63a6.17,6.17,0,0,0,.17-1.59c0-.24,0-.48,0-.73Zm-7.3,55.37a.16.16,0,0,0,0,0v0Z"/><path class="cls-1" d="M166.37,43.48a53.6,53.6,0,0,0-3.05-13.57,4.81,4.81,0,0,0-.36-1.73c-.34-.81-.67-1.6-1.05-2.39a32.66,32.66,0,0,0-2.89-5A30.34,30.34,0,0,0,146.47,10.3a28.86,28.86,0,0,0-4.77-1.61,27.52,27.52,0,0,0-4.7-.6,20.49,20.49,0,0,0-3.13.17A27.28,27.28,0,0,0,127,10a29,29,0,0,0-5.67,2.85,17,17,0,0,0-4.7,4.37A20,20,0,0,0,114.3,22c-.3.83-.5,1.71-.73,2.57-.31,1.15-.72,2.27-1,3.43,0,0,0,0,0,0a0,0,0,0,0,0,0,16.89,16.89,0,0,1,.78-2.27h0a9.56,9.56,0,0,1,1.13-1.93,13.18,13.18,0,0,1,2.23-2.17,23.42,23.42,0,0,1,4.52-2.54,33.28,33.28,0,0,1,5.89-1.67,33,33,0,0,1,6.17,0,30.18,30.18,0,0,1,5.16,1.35,27.44,27.44,0,0,1,4.42,2.57,30.19,30.19,0,0,1,3.86,3.9A36.08,36.08,0,0,1,149.61,30c.28.57.54,1.15.79,1.74a11.59,11.59,0,0,0,.73,1.75,6.31,6.31,0,0,0,.54.78c.47,1.34.9,2.7,1.31,4.07a46.6,46.6,0,0,1,1.23,5.86c.18,1.7.31,3.4.38,5.12a30.67,30.67,0,0,1-.19,4.38A32,32,0,0,1,153,58.56a36.47,36.47,0,0,1-2.72,4.71A26.65,26.65,0,0,1,147,66.64a21.35,21.35,0,0,1-3.62,2.2,15.33,15.33,0,0,1-2.83.74,16.14,16.14,0,0,1-6.23-.51s0,0,0,0a19.22,19.22,0,0,0,5,3.25,16.07,16.07,0,0,0,5.54,1.19,17.87,17.87,0,0,0,5.29-.81,21.09,21.09,0,0,0,8.21-4.82,22.85,22.85,0,0,0,2.48-2.52c.67-.82,1.32-1.65,1.92-2.52a23.12,23.12,0,0,0,2.37-4.95,26.89,26.89,0,0,0,1.44-7.56c.05-.68.07-1.35.07-2a48.74,48.74,0,0,0-.29-4.87Z"/><path class="cls-1" d="M162.44,125c-1.57-2.6-2.95-5.31-4.41-8-1.3-2.37-2.59-4.75-3.88-7.12-1.39-2.56-2.82-5.11-4.22-7.66-1-1.86-1.93-3.8-2.87-5.72a4.73,4.73,0,0,0-.14-.74,10,10,0,0,0-.89-1.94l-.72-1.37c-.57-1.08-1.16-2.16-1.73-3.24-1.2-2.27-2.45-4.52-3.82-6.69-1.51-2.38-3.16-4.63-4.9-6.86-1.59-2-3.48-3.82-5.07-5.86h0a35.82,35.82,0,0,1-2.38-3.79s0,0,0,0c.54,1,1.11,2,1.56,3.09l0,0a36.54,36.54,0,0,1,1.66,7.64c.47,2.66,1,5.3,1.71,7.92s1.54,5.35,2.43,8q.56,1.66,1.21,3.29c.63,1.59,1.2,3.51,2.41,4.79a49.41,49.41,0,0,0,3.72,6.09,52.12,52.12,0,0,0,6.38,7.13c2,1.93,4.11,3.73,6.27,5.48,2.47,2,5.14,3.71,7.7,5.58,0,0,0,0,0,0Z"/><path class="cls-1" d="M200.16,73.76c-.24-4.52-.79-9.06-1.45-13.54a15.68,15.68,0,0,0-.53-4.59c-.23-1.22-.46-2.45-.75-3.65a69.08,69.08,0,0,0-2.09-7.33,77.13,77.13,0,0,0-3.52-8.25A56.34,56.34,0,0,0,187.89,30a39.1,39.1,0,0,0-10.36-10.45,24.61,24.61,0,0,0-6.2-2.81c-1.16-.38-2.36-.66-3.53-1s-2.52-.79-3.79-1.18c0,0,0,0,0,0,1.1.38,2.19.76,3.28,1.18h0a20.22,20.22,0,0,1,3.3,2.05,35,35,0,0,1,5.19,5.31,59.64,59.64,0,0,1,6.37,11.26c2.91,7.74,4.36,15.94,5.73,24.07a10.8,10.8,0,0,0,.66,3.28c.27,2.5.53,5,.59,7.51.08,2.92.16,5.84.32,8.75.3,5.71,1.12,11.4,1.94,17.06l.31,2.29q1.22,9.46,2.51,18.9v0c0,.25.06.51.09.77a0,0,0,0,0,0,0c.55-2.62,1.24-5.2,1.82-7.81q.74-3.3,1.42-6.63a137.38,137.38,0,0,0,2.26-14.49c.3-3.15.47-6.29.47-9.44q0-2.43-.13-4.86ZM191.81,98.1l0-.23,0,.23ZM170.64,17.85l0,0,0,0Zm-.08-.06-.05,0,.05,0Zm-3.27-2h0Z"/><path class="cls-1" d="M220.6,10.87a40,40,0,0,0-6.11,2.26,27.86,27.86,0,0,0-5.91,4.16,30.69,30.69,0,0,0-3.5,3.63c-.73.89-1.52,1.77-2.17,2.71s-1.22,1.8-1.82,2.71-.91,1.61-1.34,2.41S199,30.25,198.69,31s-.63,1.42-.91,2.15a3.72,3.72,0,0,0-.46,1c-.16.48-.31,1-.46,1.46s-.27,1-.39,1.58c-.34,1.56-.6,3.14-.78,4.72a73.27,73.27,0,0,0-.58,7.9,80.37,80.37,0,0,0,.27,8.17c.27,2.83.46,5.67.87,8.49,0,0,0,0,0,0-.09-.79-.17-1.57-.21-2.36a17.2,17.2,0,0,1,.08-2.59c.67-4.47,2.29-8.77,3.69-13.05.66-2,1.28-4,2-6,.39-1.15.77-2.3,1.18-3.45a19.27,19.27,0,0,0,1.17-3.54c.39-1.08.84-2.15,1.24-3.23q.56-1.32,1.11-2.64c.64-1.35,1.25-2.72,2-4a60.8,60.8,0,0,1,5-8.05,32.37,32.37,0,0,1,4.8-4.89l-.1.07c.81-.62,1.64-1.19,2.5-1.74h0a0,0,0,0,0,0,0Z"/><path class="cls-1" d="M278,85.75a63.8,63.8,0,0,0-3.57-9.86c-3.45-8-10-14.58-17.42-19a40.9,40.9,0,0,0-4.42-2.62c-1.51-.83-3-1.66-4.52-2.52-2.65-1.54-5.24-3.15-7.74-4.92q-1.41-1.16-2.75-2.4a35.56,35.56,0,0,1-3.12-3.4c-.75-1-1.48-2.07-2.19-3.13A33.77,33.77,0,0,1,230,33.7c-.35-.93-.67-1.87-1-2.82a23.26,23.26,0,0,1-.69-3.17c-.1-1.11-.17-2.22-.22-3.34a25.77,25.77,0,0,1,.18-3.46c.21-1.29.46-2.56.8-3.82a36,36,0,0,1,1.18-3.53,27.06,27.06,0,0,1,2.18-3.83,17.29,17.29,0,0,1,1.44-1.48,12.85,12.85,0,0,1,1.33-.81A12.75,12.75,0,0,1,236.73,7,13.43,13.43,0,0,1,239,7a29,29,0,0,1,5.45,1.66,33.59,33.59,0,0,1,5.44,3.14,21.59,21.59,0,0,1,3,2.87,30.3,30.3,0,0,1,2.61,4.2h0s0,0,0,0a7.27,7.27,0,0,0-.54-1c-.3-.56-.59-1.12-.88-1.69-.52-1-1-2.1-1.51-3.11a33.38,33.38,0,0,0-1.95-3.23A31.38,31.38,0,0,0,248,6.7a28.23,28.23,0,0,0-2.48-2.26A19.85,19.85,0,0,0,239.64.79a12.72,12.72,0,0,0-8.4-.15A16.12,16.12,0,0,0,224,5.89a36.74,36.74,0,0,0-4.64,7.1,34.21,34.21,0,0,0-3,8.15,45.54,45.54,0,0,0-.11,18,27.72,27.72,0,0,0,1.38,5.07,68.13,68.13,0,0,0,3,6.61,34.15,34.15,0,0,0,2.66,4.07,46.65,46.65,0,0,0,4.46,5.34,51.29,51.29,0,0,0,10,7.61c1.47.88,3,1.69,4.48,2.49l2.53,1.34c1,.55,2.08,1.16,3.17,1.6a55.24,55.24,0,0,1,5.3,3.39,38.6,38.6,0,0,1,4.91,4.86,43.67,43.67,0,0,1,4.21,7.09,28.46,28.46,0,0,1,1.32,4.7,27,27,0,0,1,0,4,28.85,28.85,0,0,1-1.29,4.76,31.11,31.11,0,0,1-2.78,4.64,58.9,58.9,0,0,1-7.56,7.42,31.77,31.77,0,0,1-4.85,3,26.26,26.26,0,0,1-4.74,1.2,25.8,25.8,0,0,1-5,.07,17.65,17.65,0,0,1-2.76-.73,18.12,18.12,0,0,1-3.12-1.84,26.16,26.16,0,0,1-3.64-3.62A42.63,42.63,0,0,1,224.7,107s0,0,0,0a73.68,73.68,0,0,0,2.57,7.71,22.23,22.23,0,0,0,4.31,6.67,16.57,16.57,0,0,0,7.87,4.18,29.21,29.21,0,0,0,4.32.65,20,20,0,0,0,5.55-.25c3.72-.66,7.18-2.39,10.54-4.07a52.35,52.35,0,0,0,9.73-6.35,27.89,27.89,0,0,0,5.87-6.93,29.55,29.55,0,0,0,2.25-5A25,25,0,0,0,279,97.18a26.67,26.67,0,0,0,.13-2.7A36.92,36.92,0,0,0,278,85.75ZM255.48,18.89h0Zm-20.23,99-.25-.11.25.11Z"/><path class="cls-1" d="M300.63,106.57a30.3,30.3,0,0,1-3.9,2.12,14.46,14.46,0,0,1-2.66.78,12.1,12.1,0,0,1-1.93,0,4.35,4.35,0,0,1-2-.87,6.07,6.07,0,0,1-.61-.6,10.5,10.5,0,0,1-.76-1.27,34,34,0,0,1-1.42-6.23q-.1-.8-.21-1.59v0c-.63-6.19-.95-12.39-1.4-18.59a10.49,10.49,0,0,0,0-2.49c-.08-.95-.16-1.89-.25-2.83-.16-1.81-.35-3.62-.54-5.43-.43-4.14-1-8.27-1.68-12.37a110.11,110.11,0,0,0-2.57-10.74c-.95-3.4-2.32-6.71-2.88-10.2v0c-.12-1-.2-1.91-.29-2.87,0,0,0,0,0,0h0a35.42,35.42,0,0,1-.11,6c-.19,1.94-.38,3.88-.51,5.83-.24,3.79-.19,7.61-.21,11.4,0,4-.07,8,0,12,0,2,0,3.95.07,5.93,0,1,0,1.91,0,2.86v.63a10.21,10.21,0,0,0,.24,2.8c.12,5.84.26,11.84,1.65,17.53a37.3,37.3,0,0,0,1.16,4.06,26.8,26.8,0,0,0,3.5,7.17,9.5,9.5,0,0,0,4,3.18,8.79,8.79,0,0,0,5.16.42,9.76,9.76,0,0,0,4.06-2.14,34.64,34.64,0,0,0,4.2-4.5h0a0,0,0,0,0,0,0Zm-10.23,2.27-.16-.12.16.12ZM287,98.18l0-.32,0,.32Z"/><path class="cls-1" d="M288.37,54.87c-1.41-.37-2.8-.81-4.22-1.18a29.17,29.17,0,0,0-3.67-.62,32.24,32.24,0,0,0-6.62-.2A8.14,8.14,0,0,0,272,53c-.77.1-1.54.22-2.31.35-1.24.2-2.47.43-3.7.61a15.23,15.23,0,0,1-3.5.12h0c-1.12-.16-2.22-.37-3.33-.61,0,0,0,0,0,0,1.21.31,2.42.59,3.63.91s2.39.72,3.6,1,2.44.57,3.69.75a13.42,13.42,0,0,0,3.9.29,48.18,48.18,0,0,0,6.15-.29c2.56-.24,5.06-.77,7.6-1.15h0l.69-.08h0Zm-25.87-.82h0Z"/><path class="cls-1" d="M335.1,60.42c-.07-.91-.17-1.82-.28-2.73a43.8,43.8,0,0,0-1.36-7,27.9,27.9,0,0,0-.94-2.66c-.32-.78-.63-1.55-1-2.3A14.85,14.85,0,0,0,329.66,43a20.76,20.76,0,0,0-5.7-4.42,37.7,37.7,0,0,0-5.3-2.65,12.29,12.29,0,0,0-11,1.26,14.22,14.22,0,0,0-6.34,9.53,22.61,22.61,0,0,0-.16,3.33l-.07,2.56s0,0,0,0c.05-.85.11-1.7.22-2.54a11.5,11.5,0,0,1,.59-1.92A12,12,0,0,1,303,46.34a15.82,15.82,0,0,1,2-2,18.33,18.33,0,0,1,3-1.77,15.8,15.8,0,0,1,2.52-.72,12.48,12.48,0,0,1,1.94,0,9.71,9.71,0,0,1,1.13.31,11.26,11.26,0,0,1,1.11.67,18.26,18.26,0,0,1,1.8,1.79,19.61,19.61,0,0,1,1.53,2.6,35.28,35.28,0,0,1,1.44,5.58,47.33,47.33,0,0,1,.14,4.79c0,.84-.09,1.69-.16,2.53,0,.46-.08.93-.12,1.4a6.43,6.43,0,0,0,.09,1.83c-.34,3.65-.63,7.32-1,11a59.31,59.31,0,0,0-.79,9A37.81,37.81,0,0,0,319,92.41a26.08,26.08,0,0,0,3.63,7.75,21,21,0,0,0,4.27,4.72,12.75,12.75,0,0,0,3.23,1.91,22.8,22.8,0,0,0,4.86,1.16s0,0,0,0a12.75,12.75,0,0,1-1.76-1,13.71,13.71,0,0,1-1.82-1.89,19.52,19.52,0,0,1-1.41-2.44,24.16,24.16,0,0,1-1.18-4.36,37,37,0,0,1-.06-7.69,92.11,92.11,0,0,1,3.34-12.82c.68-2.09,1.43-4.14,1.95-6.28a34.28,34.28,0,0,0,.82-7.72,10.12,10.12,0,0,0,.21-2.13c0-.38,0-.77,0-1.16ZM330.22,103l-.08-.2.08.2ZM302,48.08l0,0,0,0Zm-.63,2h0Z"/><path class="cls-1" d="M320.19,78.77a12.11,12.11,0,0,0-7.89-5.29,13.67,13.67,0,0,0-4.91,0,14,14,0,0,0-1.87.42A6.74,6.74,0,0,0,303,75.24a11.47,11.47,0,0,0-2.78,2.39,13.86,13.86,0,0,0-2.29,4.21,16.84,16.84,0,0,0-.78,4.83,12.65,12.65,0,0,0,1.09,5.65,11.37,11.37,0,0,0,6,6.06,11.85,11.85,0,0,0,4,.89,12.92,12.92,0,0,0,4.69-1s0,0,0,0a11.93,11.93,0,0,1-1.5-.1,14.82,14.82,0,0,1-2.17-.6,14,14,0,0,1-2.25-1.3,16.11,16.11,0,0,1-1.39-1.37A12.3,12.3,0,0,1,304.39,93a16.58,16.58,0,0,1-.5-1.89,14.27,14.27,0,0,1,0-2.31,17,17,0,0,1,.8-2.77,16.53,16.53,0,0,1,1.08-1.88,12.48,12.48,0,0,1,1-1l.37-.24.21,0,1.06-.45a14.93,14.93,0,0,1,2-.58,13.57,13.57,0,0,1,1.66,0,13.21,13.21,0,0,1,1.68.45,14.63,14.63,0,0,1,2,1.18,18,18,0,0,1,2.1,2.15,24.12,24.12,0,0,1,2.56,4.53,16.06,16.06,0,0,1,1,3.71c.08.89.12,1.79.17,2.68,0,0,0,0,0,0a29.5,29.5,0,0,1,.13-4.07.43.43,0,0,1,0,.05c.07-.53.15-1,.22-1.57.17-1.22.28-2.43.35-3.67q0-.36,0-.71a15,15,0,0,0-2.21-7.74ZM322,90.92v0Zm-1.5-.65,0-.08,0,.08Zm1.28,2.21v0Z"/><path class="cls-1" d="M371.08,95.17a22.55,22.55,0,0,1-5.23,0,27.75,27.75,0,0,1-5.12-1.27,11.52,11.52,0,0,1-1.37-.76l-.21-.21-.08-.14a17,17,0,0,1-.62-2.53c-.32-4.06.13-8.19.14-12.26a114.74,114.74,0,0,0-.84-13.14,5.11,5.11,0,0,0,0-1.4q-.15-1.11-.3-2.22c.08.59.16,1.18.24,1.78-1.06-7.95-2.41-15.84-5.43-23.31a43.85,43.85,0,0,0-5.38-10.09c-.59-.77-1.19-1.51-1.82-2.24a17.66,17.66,0,0,0-3.21-2.69c-.88-.63-1.83-1.19-2.72-1.81s-1.89-1.41-2.83-2.12c0,0,0,0,0,0a22.35,22.35,0,0,1,3.64,3.37v0a11.25,11.25,0,0,1,1.21,2.07A31,31,0,0,1,342.74,33c.59,5.16.62,10.36,1,15.53.17,2.6.34,5.2.42,7.8,0,1.41.09,2.83.15,4.24,0,.76,0,1.52.07,2.27,0,.19,0,.38,0,.57a11.86,11.86,0,0,0,.26,2.23l.06.15a129,129,0,0,0,2.27,19.89,23.2,23.2,0,0,0,4.52,10,8.3,8.3,0,0,0,4,3,12.79,12.79,0,0,0,6.67-.17,82.26,82.26,0,0,0,9-3.27h0Zm-11.29-1.69-.17-.13.17.13Zm-.32-.1-.11-.14.11.14Z"/><path class="cls-1" d="M356.91,40.8a45.69,45.69,0,0,0-7.48-1.73c-1-.09-2-.15-3.07-.15a26.25,26.25,0,0,0-3.23.14,25.1,25.1,0,0,0-5.75,1.4c-1.87.71-3.76,1.24-5.69,1.78,0,0,0,0,0,0h0c.61-.15,1.23-.26,1.85-.38h0a23.12,23.12,0,0,1,5.2.13,24.22,24.22,0,0,0,5.62.25A91,91,0,0,0,354.55,41h0c.77-.09,1.54-.16,2.31-.21h0Zm-2.34.24h0Z"/><path class="cls-1" d="M386.32,107.28a13.43,13.43,0,0,1-1.95-1.1,10.93,10.93,0,0,1-1.24-1.21,8.51,8.51,0,0,1-.71-1.21,17.4,17.4,0,0,1-.8-3.15,27.79,27.79,0,0,1-.08-5.57c.35-2.23.86-4.43,1.25-6.65a56,56,0,0,0,.93-8.35l.12-.31a6.09,6.09,0,0,0,.16-2.17c0-.5-.06-1-.1-1.49-.11-1.34-.3-2.66-.48-4q-.37-2.72-1-5.39a28.59,28.59,0,0,0-4.83-11c-.43-.54-.87-1.05-1.33-1.56a31,31,0,0,0-2.91-2.58,27.31,27.31,0,0,1-3.53-3.72,0,0,0,0,0,0,0h0a0,0,0,0,0,0,0c.57.77,1.19,1.49,1.8,2.23h0a14.73,14.73,0,0,1,1.57,2.74,15.44,15.44,0,0,1,.6,2.46,63.91,63.91,0,0,1-.08,11.47c-.12,2-.23,4-.34,6.06-.05.95-.1,1.89-.13,2.84,0,.57,0,1.14,0,1.72,0,.32,0,.65,0,1a5.1,5.1,0,0,0,.32,1.75q0,1.21,0,2.42a78.85,78.85,0,0,0,.71,13.07,17.73,17.73,0,0,0,2.47,6.25,18.12,18.12,0,0,0,2.37,3.11,8.54,8.54,0,0,0,2.94,1.94,11.24,11.24,0,0,0,4.33.47h0ZM371.62,50h0Zm5.94,5.56,0,.06.17.22-.22-.28Zm.22.28.11.15-.11-.15Z"/><path class="cls-1" d="M369,9.48a15.14,15.14,0,0,0-15,15,15,15,0,0,0,30,0,15.14,15.14,0,0,0-15-15Z"/><path class="cls-1" d="M414.48,77a9.87,9.87,0,0,0-5.66-7.42,7.13,7.13,0,0,0-4.07-.55,10,10,0,0,0-1,.29l-.58-.24c-.68-.27-1.36-.54-2.05-.76a7.81,7.81,0,0,0-3.25-.22,9.93,9.93,0,0,0-3.7,1.4,8.64,8.64,0,0,0-3.73,5.12,12.26,12.26,0,0,0-.4,2.73,14.41,14.41,0,0,0,0,2.21,16,16,0,0,0,1.56,5.62,12.57,12.57,0,0,0,4,4.52,9.62,9.62,0,0,0,2.51,1.18,5.53,5.53,0,0,0,1.16.24l1.07.14c.36,0,.71-.08,1.06-.14a13.19,13.19,0,0,0,4.33-1,18,18,0,0,0,4.61-2.87,12.79,12.79,0,0,0,3.16-4.08,10.36,10.36,0,0,0,1.12-4.63,9,9,0,0,0-.14-1.58Zm-6.06.27a11.93,11.93,0,0,1-.38,1.29,14.84,14.84,0,0,1-.78,1.28,16,16,0,0,1-1.5,1.51,16.7,16.7,0,0,1-2.45,1.44,14.79,14.79,0,0,1-1.91.53h-.11c-.34-.06-.67-.11-1-.14s-.56-.13-.84-.21a9.27,9.27,0,0,1-.89-.53,12.31,12.31,0,0,1-1-1,14.21,14.21,0,0,1-1-1.83,16.89,16.89,0,0,1-.72-2.69,13.76,13.76,0,0,1,0-2.17,7.79,7.79,0,0,1,.26-1,13,13,0,0,1,1.17-2,16.49,16.49,0,0,1,1.52-1.61l-.25.19a7,7,0,0,1,1.46-1l-.17.07a4.49,4.49,0,0,1,1.31-.43,6.71,6.71,0,0,1,1.48,0h0c.34.09.68.2,1,.32-.35.12-.69.26-1,.42a17.21,17.21,0,0,0-2.82,1.85s0,0,0,0a19,19,0,0,1,2.49-.66,12.65,12.65,0,0,1,2,0,5.66,5.66,0,0,1,1,.28,6.5,6.5,0,0,1,1,.55A8.75,8.75,0,0,1,407.29,73a9.11,9.11,0,0,1,.6,1,12.09,12.09,0,0,1,.54,1.84,10.77,10.77,0,0,1,0,1.41Zm-6.24,6-.34,0,.34,0ZM402.55,69h0Z"/><path class="cls-1" d="M466.7,103.12c-.43-1.75-.86-3.49-1.25-5.25-.24-1.1-.41-2.22-.58-3.34-.44-4-.73-8-1.14-11.94-.44-4.3-1.07-8.58-1.66-12.86-.73-5.73-1.38-11.46-2.31-17.15s-1.92-11.08-2.69-16.66a29.32,29.32,0,0,1,0-6.37,48.56,48.56,0,0,1,3.23-10.44l0,.12c.69-1.64,1.42-3.25,2.2-4.84a0,0,0,0,0,0,0c-2,3-4.27,6-6.17,9.1a27.36,27.36,0,0,0-4,10.24,65,65,0,0,0-.35,10c0,5.27.14,10.54.18,15.81q0,2.8,0,5.61c0,2.23,0,4.45,0,6.68-1.78-5.34-3.49-10.71-5.58-15.94S442,45.56,439.83,40.41c-1-2.36-2-4.72-3-7.08-.94-2.17-2-4.3-2.92-6.47-.41-1-.8-2.08-1.15-3.14,0-.77.06-1.55.08-2.32.07-2.95.61-6.33-1.26-8.87A7.72,7.72,0,0,0,419.4,11a9.34,9.34,0,0,0-2.45,4.18c-.14.55-.25,1.12-.36,1.68-.23,1.15-.6,2.28-.92,3.41A48.58,48.58,0,0,0,414,29c-.44,5,.18,10,.38,15,.21,5.16.21,10.34.49,15.5.3,5.49,1.07,10.93,1.72,16.39a102.94,102.94,0,0,1-.18,25.66c0-.16,0-.33.06-.49a35.31,35.31,0,0,1-2.1,9.07v0c-.6,1.2-1.26,2.37-1.92,3.54,0,0,0,0,0,0,1.11-1.86,2.21-3.7,3.48-5.45s2.48-3.44,3.59-5.25a38.24,38.24,0,0,0,2.66-5.11,58.34,58.34,0,0,0,2.41-6.34,92.83,92.83,0,0,0,2.79-12.18c.71-4.57,1.27-9.16,1.86-13.75.42-2.92.86-5.84,1.25-8.77,1.33,4.22,2.45,8.5,3.6,12.78,1.32,4.93,2.56,9.88,4.09,14.75a87.6,87.6,0,0,0,3.45,8.86c1,2.28,2,4.55,3.11,6.79.94,1.89,2,3.7,3,5.57.46.86.92,1.73,1.37,2.61.25.49.49,1,.75,1.48a9.43,9.43,0,0,0,3.45,3.55,9.89,9.89,0,0,0,4.71,1.25l2.37-.32a8.84,8.84,0,0,0,6.5-8.6,9.86,9.86,0,0,0-.29-2.35Z"/></g></g></svg>